<svg fill="none" height="100%" width="100%" viewBox="0 0 1080 1080" xmlns:xlink="http://www.w3.org/1999/xlink" xmlns="http://www.w3.org/2000/svg"><defs><mask id="i0"><rect fill="white" height="100%" width="100%" /><path fill="white" d="M-2.219,-15.557C-2.219,-15.557,-9.895,0.488,-9.895,0.488C-9.895,0.488,-7.942,8.182,-7.942,8.182C-7.942,8.182,8.347,-9.264,8.347,-9.264C8.347,-9.264,-2.219,-15.557,-2.219,-15.557Z"><animate repeatCount="indefinite" begin="0s" keySplines="0 0 1 1; 0 0 1 1; 0 0 1 1; 0 0 1 1; 0 0 1 1; 0 0 1 1" calcMode="spline" fill="freeze" dur="3.033s" keyTimes="0; 0.043956; 0.087912; 0.472527; 0.516484; 0.56044; 1" values="M-2.219,-15.557C-2.219,-15.557,-9.895,0.488,-9.895,0.488C-9.895,0.488,-7.942,8.182,-7.942,8.182C-7.942,8.182,8.347,-9.264,8.347,-9.264C8.347,-9.264,-2.219,-15.557,-2.219,-15.557Z; M-2.219,-15.557C-2.219,-15.557,-9.895,0.488,-9.895,0.488C-9.895,0.488,-1.449,15.57,-1.449,15.57C-1.449,15.57,14.84,-1.876,14.84,-1.876C14.84,-1.876,-2.219,-15.557,-2.219,-15.557Z; M-2.219,-15.557C-2.219,-15.557,-9.895,0.488,-9.895,0.488C-9.895,0.488,-7.942,8.182,-7.942,8.182C-7.942,8.182,8.347,-9.264,8.347,-9.264C8.347,-9.264,-2.219,-15.557,-2.219,-15.557Z; M-2.219,-15.557C-2.219,-15.557,-9.895,0.488,-9.895,0.488C-9.895,0.488,-7.942,8.182,-7.942,8.182C-7.942,8.182,8.347,-9.264,8.347,-9.264C8.347,-9.264,-2.219,-15.557,-2.219,-15.557Z; M-2.219,-15.557C-2.219,-15.557,-9.895,0.488,-9.895,0.488C-9.895,0.488,-1.449,15.57,-1.449,15.57C-1.449,15.57,14.84,-1.876,14.84,-1.876C14.84,-1.876,-2.219,-15.557,-2.219,-15.557Z; M-2.219,-15.557C-2.219,-15.557,-9.895,0.488,-9.895,0.488C-9.895,0.488,-7.942,8.182,-7.942,8.182C-7.942,8.182,8.347,-9.264,8.347,-9.264C8.347,-9.264,-2.219,-15.557,-2.219,-15.557Z; M-2.219,-15.557C-2.219,-15.557,-9.895,0.488,-9.895,0.488C-9.895,0.488,-7.942,8.182,-7.942,8.182C-7.942,8.182,8.347,-9.264,8.347,-9.264C8.347,-9.264,-2.219,-15.557,-2.219,-15.557Z" attributeName="d" /></path><path fill="white" d="M22.998,9.688C22.998,9.688,15.322,25.734,15.322,25.734C15.322,25.734,3.887,21.728,3.887,21.728C3.887,21.728,24.414,-0.338,24.414,-0.338C24.414,-0.338,22.998,9.688,22.998,9.688Z"><animate repeatCount="indefinite" begin="0s" keySplines="0 0 1 1; 0 0 1 1; 0 0 1 1; 0 0 1 1; 0 0 1 1; 0 0 1 1" calcMode="spline" fill="freeze" dur="3.033s" keyTimes="0; 0.043956; 0.087912; 0.472527; 0.516484; 0.56044; 1" values="M22.998,9.688C22.998,9.688,15.322,25.734,15.322,25.734C15.322,25.734,3.887,21.728,3.887,21.728C3.887,21.728,24.414,-0.338,24.414,-0.338C24.414,-0.338,22.998,9.688,22.998,9.688Z; M22.998,9.688C22.998,9.688,15.322,25.734,15.322,25.734C15.322,25.734,-4.138,17.777,-4.138,17.777C-4.138,17.777,16.389,-4.29,16.389,-4.29C16.389,-4.29,22.998,9.688,22.998,9.688Z; M22.998,9.688C22.998,9.688,15.322,25.734,15.322,25.734C15.322,25.734,3.887,21.728,3.887,21.728C3.887,21.728,24.414,-0.338,24.414,-0.338C24.414,-0.338,22.998,9.688,22.998,9.688Z; M22.998,9.688C22.998,9.688,15.322,25.734,15.322,25.734C15.322,25.734,3.887,21.728,3.887,21.728C3.887,21.728,24.414,-0.338,24.414,-0.338C24.414,-0.338,22.998,9.688,22.998,9.688Z; M22.998,9.688C22.998,9.688,15.322,25.734,15.322,25.734C15.322,25.734,-4.138,17.777,-4.138,17.777C-4.138,17.777,16.389,-4.29,16.389,-4.29C16.389,-4.29,22.998,9.688,22.998,9.688Z; M22.998,9.688C22.998,9.688,15.322,25.734,15.322,25.734C15.322,25.734,3.887,21.728,3.887,21.728C3.887,21.728,24.414,-0.338,24.414,-0.338C24.414,-0.338,22.998,9.688,22.998,9.688Z; M22.998,9.688C22.998,9.688,15.322,25.734,15.322,25.734C15.322,25.734,3.887,21.728,3.887,21.728C3.887,21.728,24.414,-0.338,24.414,-0.338C24.414,-0.338,22.998,9.688,22.998,9.688Z" attributeName="d" /></path></mask><mask id="i1"><rect fill="white" height="100%" width="100%" /><path fill="white" d="M-0.406,-8.709C-0.406,-8.709,-9.27,-2.19,-9.27,-2.19C-9.27,-2.19,-8.257,10.294,-8.257,10.294C-8.257,10.294,9.493,-8.087,9.493,-8.087C9.493,-8.087,-0.406,-8.709,-0.406,-8.709Z"><animate repeatCount="indefinite" begin="0s" keySplines="0 0 1 1; 0 0 1 1; 0 0 1 1; 0 0 1 1; 0 0 1 1; 0 0 1 1" calcMode="spline" fill="freeze" dur="3.033s" keyTimes="0; 0.043956; 0.087912; 0.472527; 0.516484; 0.56044; 1" values="M-0.406,-8.709C-0.406,-8.709,-9.27,-2.19,-9.27,-2.19C-9.27,-2.19,-8.257,10.294,-8.257,10.294C-8.257,10.294,9.493,-8.087,9.493,-8.087C9.493,-8.087,-0.406,-8.709,-0.406,-8.709Z; M-0.406,-8.709C-0.406,-8.709,-9.27,-2.19,-9.27,-2.19C-9.27,-2.19,-3.304,14.072,-3.304,14.072C-3.304,14.072,14.446,-4.309,14.446,-4.309C14.446,-4.309,-0.406,-8.709,-0.406,-8.709Z; M-0.406,-8.709C-0.406,-8.709,-9.27,-2.19,-9.27,-2.19C-9.27,-2.19,-8.257,10.294,-8.257,10.294C-8.257,10.294,9.493,-8.087,9.493,-8.087C9.493,-8.087,-0.406,-8.709,-0.406,-8.709Z; M-0.406,-8.709C-0.406,-8.709,-9.27,-2.19,-9.27,-2.19C-9.27,-2.19,-8.257,10.294,-8.257,10.294C-8.257,10.294,9.493,-8.087,9.493,-8.087C9.493,-8.087,-0.406,-8.709,-0.406,-8.709Z; M-0.406,-8.709C-0.406,-8.709,-9.27,-2.19,-9.27,-2.19C-9.27,-2.19,-3.304,14.072,-3.304,14.072C-3.304,14.072,14.446,-4.309,14.446,-4.309C14.446,-4.309,-0.406,-8.709,-0.406,-8.709Z; M-0.406,-8.709C-0.406,-8.709,-9.27,-2.19,-9.27,-2.19C-9.27,-2.19,-8.257,10.294,-8.257,10.294C-8.257,10.294,9.493,-8.087,9.493,-8.087C9.493,-8.087,-0.406,-8.709,-0.406,-8.709Z; M-0.406,-8.709C-0.406,-8.709,-9.27,-2.19,-9.27,-2.19C-9.27,-2.19,-8.257,10.294,-8.257,10.294C-8.257,10.294,9.493,-8.087,9.493,-8.087C9.493,-8.087,-0.406,-8.709,-0.406,-8.709Z" attributeName="d" /></path><path fill="white" d="M18.561,10.053C18.561,10.053,9.696,16.573,9.696,16.573C9.696,16.573,3.902,16.674,3.902,16.674C3.902,16.674,18.855,0.842,18.855,0.842C18.855,0.842,18.561,10.053,18.561,10.053Z"><animate repeatCount="indefinite" begin="0s" keySplines="0 0 1 1; 0 0 1 1; 0 0 1 1; 0 0 1 1; 0 0 1 1; 0 0 1 1" calcMode="spline" fill="freeze" dur="3.033s" keyTimes="0; 0.043956; 0.087912; 0.472527; 0.516484; 0.56044; 1" values="M18.561,10.053C18.561,10.053,9.696,16.573,9.696,16.573C9.696,16.573,3.902,16.674,3.902,16.674C3.902,16.674,18.855,0.842,18.855,0.842C18.855,0.842,18.561,10.053,18.561,10.053Z; M18.561,10.053C18.561,10.053,9.696,16.573,9.696,16.573C9.696,16.573,-2.084,12.346,-2.084,12.346C-2.084,12.346,12.869,-3.486,12.869,-3.486C12.869,-3.486,18.561,10.053,18.561,10.053Z; M18.561,10.053C18.561,10.053,9.696,16.573,9.696,16.573C9.696,16.573,3.902,16.674,3.902,16.674C3.902,16.674,18.855,0.842,18.855,0.842C18.855,0.842,18.561,10.053,18.561,10.053Z; M18.561,10.053C18.561,10.053,9.696,16.573,9.696,16.573C9.696,16.573,3.902,16.674,3.902,16.674C3.902,16.674,18.855,0.842,18.855,0.842C18.855,0.842,18.561,10.053,18.561,10.053Z; M18.561,10.053C18.561,10.053,9.696,16.573,9.696,16.573C9.696,16.573,-2.084,12.346,-2.084,12.346C-2.084,12.346,12.869,-3.486,12.869,-3.486C12.869,-3.486,18.561,10.053,18.561,10.053Z; M18.561,10.053C18.561,10.053,9.696,16.573,9.696,16.573C9.696,16.573,3.902,16.674,3.902,16.674C3.902,16.674,18.855,0.842,18.855,0.842C18.855,0.842,18.561,10.053,18.561,10.053Z; M18.561,10.053C18.561,10.053,9.696,16.573,9.696,16.573C9.696,16.573,3.902,16.674,3.902,16.674C3.902,16.674,18.855,0.842,18.855,0.842C18.855,0.842,18.561,10.053,18.561,10.053Z" attributeName="d" /></path></mask></defs><g id="i2"><g transform="translate(564.412,658.82)"><g transform="rotate(1)"><animateTransform repeatCount="indefinite" type="rotate" attributeName="transform" dur="3.033s" begin="0s" calcMode="spline" values="1; -1.5; -1.5" keyTimes="0; 0.164835; 1" keySplines="0.333 0 0.667 1; 0 0 1 1" fill="freeze" /><g transform="scale(1,1) translate(-199.487,-184.239)"><g id="i3"><g transform="translate(305.445,102.323)"><g transform="rotate(14)"><animateTransform repeatCount="indefinite" type="rotate" attributeName="transform" dur="3.033s" begin="0s" calcMode="spline" values="14; 0; 0" keyTimes="0; 0.164835; 1" keySplines="0.727 0 0.278 1; 0 0 1 1" fill="freeze" /><g transform="scale(1,1) translate(-102.685,-188.268)"><g id="i4" transform="matrix(1,0,0,1,75.684,114.135)"><path fill="#ffffff" fill-rule="evenodd" d="M-52.178,74.738C-52.564,73.704,-53.003,72.483,-53.515,71.115C-55.258,66.261,-57.73,59.261,-61.112,49.324C-75.435,7.314,-38.288,-14.055,-23.333,-20.77C-19.716,-22.373,-17.381,-23.151,-17.381,-23.151C-17.381,-23.151,-44.285,-96.247,-36.656,-105.065C-29.026,-113.884,23.351,-57.892,23.351,-57.892C23.351,-57.892,41.127,-36.464,59.844,-8.625C69.654,5.966,75.023,23.091,75.211,40.672C75.434,61.678,73.142,88.806,61.203,100.844C48.268,113.884,0.894,113.519,-28,101.633C-45.719,94.342,-52.178,74.738,-52.178,74.738Z" /></g><g id="i5" transform="matrix(1,0,0,1,30.585,140.176)"><path fill="#080b3c" fill-rule="evenodd" d="M29.609,-30.63C28.676,-21.011,19.18,-14.696,14.945,-5.977C11.534,1.106,11.829,9.346,11.693,17.234C11.531,26.607,10.319,37.644,1.56,42.983C-1.996,45.173,-5.286,46.016,-8.279,45.87C-10.022,41.017,-12.494,34.016,-15.875,24.078C-30.199,-17.932,6.947,-39.301,21.902,-46.016C26.851,-42.552,30.199,-36.631,29.609,-30.63Z" /></g><g id="i6" transform="matrix(1,0,0,1,55.706,207.322)"><path stroke-linejoin="round" stroke-linecap="round" stroke-width="0.519" stroke="#080b3c" d="M-33.564,-23.918C-33.564,-23.918,-28.614,2.271,-1.637,13.095C25.339,23.918,33.564,21.646,33.564,21.646" /></g><g id="i7" transform="matrix(1,0,0,1,57.867,95.455)"><path stroke-linejoin="round" stroke-linecap="round" stroke-width="0.519" stroke="#080b3c" d="M-13.655,4.644C-13.655,4.644,-5.842,-3.894,13.655,-4.644" /></g><g id="i8" transform="matrix(1,0,0,1,129.242,118.155)"><path stroke-linejoin="round" stroke-linecap="round" stroke-width="0.262" stroke="#080b3c" d="M0.813,2.644C0.636,0.795,0.079,-1.016,-0.813,-2.644" /></g><g id="i9" transform="matrix(1,0,0,1,129.205,110.479)"><path stroke-linejoin="round" stroke-linecap="round" stroke-width="0.262" stroke="#080b3c" d="M-1.735,-2.701C-0.024,-1.351,1.218,0.584,1.735,2.701" /></g><g id="i10" transform="matrix(1,0,0,1,134.003,120.493)"><path stroke-linejoin="round" stroke-linecap="round" stroke-width="0.262" stroke="#080b3c" d="M-0.92,-3.711C-0.118,-1.289,0.497,1.195,0.92,3.711" /></g></g></g></g></g></g></g></g></g><g id="i2"><g transform="translate(564.412,658.82)"><g transform="rotate(1)"><animateTransform repeatCount="indefinite" type="rotate" attributeName="transform" dur="3.033s" begin="0s" calcMode="spline" values="1; -1.5; -1.5" keyTimes="0; 0.164835; 1" keySplines="0.333 0 0.667 1; 0 0 1 1" fill="freeze" /><g transform="scale(1,1) translate(-199.487,-184.239)"><g id="i11"><g transform="translate(110.888,111.826)"><g transform="rotate(20)"><animateTransform repeatCount="indefinite" type="rotate" attributeName="transform" dur="3.033s" begin="0s" calcMode="spline" values="20; 0; 20; 20" keyTimes="0; 0.164835; 0.32967; 1" keySplines="0.33 0 0.1 1; 0.33 0 0.1 1; 0 0 1 1" fill="freeze" /><g transform="scale(1,1) translate(-49.307,-183.741)"><g id="i4" transform="matrix(1,0,0,1,77.483,100.132)"><path fill="#ffffff" fill-rule="evenodd" d="M41.418,17.673C41.106,17.244,40.836,16.794,40.581,16.328C35.875,7.703,28.05,1.02,22.88,-15.13C21.562,-19.28,21.549,-23.589,21.211,-27.666C19.525,-48.051,17.856,-93.066,2.145,-96.898C-9.638,-99.771,-23.626,-66.032,-30.887,-41.151C-31.155,-40.297,-31.405,-39.486,-31.643,-38.646C-33.712,-31.393,-35.13,-25.088,-35.698,-20.906C-35.834,-20.073,-35.928,-19.225,-36.017,-18.448C-36.765,-12.561,-37.146,-7.588,-37.342,-3.604C-37.363,-3.174,-37.36,-2.76,-37.336,-2.33C-36.975,4.009,-34.31,57.054,-44.857,79.358C-44.904,79.465,-44.95,79.572,-44.997,79.68C-49.313,89.508,-39.93,99.771,-29.797,96.23C-29.797,96.23,40.673,71.597,40.673,71.597C45.622,69.866,48.922,65.175,48.87,59.932C48.814,54.332,48.791,47.197,48.939,42.141C49.313,29.424,43.095,19.98,41.418,17.673Z" /></g><g id="i5" transform="matrix(1,0,0,1,73.572,42.955)"><path fill="#080b3c" fill-rule="evenodd" d="M25.124,29.511C25.461,33.588,26.413,37.79,27.731,41.94C21.832,42.705,15.787,41.809,9.936,40.549C1.452,38.726,-7.015,36.121,-14.393,31.539C-19.716,28.223,-24.482,23.824,-27.731,18.531C-20.65,-6.52,-6.125,-42.705,6.057,-39.721C21.767,-35.889,23.438,9.126,25.124,29.511Z" /></g><g id="i6" transform="matrix(1,0,0,1,24.67,134.169)"><path stroke-linejoin="round" stroke-linecap="round" stroke-width="0.519" stroke="#080b3c" d="M23.373,-78.016C11.646,-48.467,18.895,-10.723,12.945,27.151C6.994,65.023,-23.373,78.016,-23.373,78.016" /></g><g id="i7" transform="matrix(1,0,0,1,114.693,125.78)"><path stroke-linejoin="round" stroke-linecap="round" stroke-width="0.519" stroke="#080b3c" d="M-14.622,-41.702C-14.622,-41.702,-11.053,-29.803,-5.433,-22.642C0.188,-15.481,5.822,-8.611,10.222,6.571C14.622,21.754,10.278,32.594,12.079,41.702" /></g><g id="i8" transform="matrix(1,0,0,1,116.714,156.391)"><path stroke-linejoin="round" stroke-linecap="round" stroke-width="0.215" stroke="#191312" d="M-0.531,2.204C0.117,0.826,0.481,-0.683,0.531,-2.204" /></g><g id="i9" transform="matrix(1,0,0,1,120.156,150.962)"><path stroke-linejoin="round" stroke-linecap="round" stroke-width="0.215" stroke="#191312" d="M-0.355,-2.63C0.288,-0.963,0.355,0.921,-0.167,2.63" /></g><g id="i10" transform="matrix(1,0,0,1,119.095,160.029)"><path stroke-linejoin="round" stroke-linecap="round" stroke-width="0.215" stroke="#191312" d="M0.901,-3.002C0.455,-0.959,-0.149,1.051,-0.901,3.002" /></g></g></g></g></g></g></g></g></g><g id="i2"><g transform="translate(564.412,658.82)"><g transform="rotate(1)"><animateTransform repeatCount="indefinite" type="rotate" attributeName="transform" dur="3.033s" begin="0s" calcMode="spline" values="1; -1.5; -1.5" keyTimes="0; 0.164835; 1" keySplines="0.333 0 0.667 1; 0 0 1 1" fill="freeze" /><g transform="scale(1,1) translate(-199.487,-184.239)"><g id="i12"><g transform="translate(201.148,-106.834)"><animateTransform repeatCount="indefinite" type="translate" attributeName="transform" dur="3.033s" begin="0s" calcMode="spline" values="201.148 -106.834; 201.148 -146.834; 201.148 -106.834; 201.148 -106.834" keyTimes="0; 0.164835; 0.32967; 1" keySplines="0.166 0 0 0.798; 0.776 0.157 0.478 1; 0 0 1 1" fill="freeze" /><g transform="rotate(0)"><animateTransform repeatCount="indefinite" type="rotate" attributeName="transform" dur="3.033s" begin="0s" calcMode="spline" values="0; -360; -360" keyTimes="0; 0.32967; 1" keySplines="0.333 0 0.07 1; 0 0 1 1" fill="freeze" /><g transform="scale(1,1) translate(-101.949,-101.932)"><g id="i13" transform="matrix(1,0,0,1,101.948,101.932)"><path fill="#ffffff" fill-rule="evenodd" d="M101.699,0C101.699,2.07,101.634,4.14,101.504,6.177C101.342,8.991,101.051,11.74,100.663,14.489C99.854,20.213,98.56,25.809,96.846,31.177C96.846,31.177,96.846,31.21,96.846,31.21C96.264,32.957,95.682,34.605,95.035,36.287C92.869,41.947,90.217,47.38,87.143,52.491C87.143,52.491,87.143,52.523,87.143,52.523C86.336,53.849,85.495,55.11,84.653,56.372C81.581,60.964,78.185,65.266,74.433,69.276C73.56,70.246,72.655,71.184,71.717,72.09C67.675,76.1,63.308,79.787,58.651,83.086C57.68,83.765,56.711,84.412,55.74,85.059C52.635,87.096,49.401,88.972,46.038,90.687C45.035,91.204,44,91.721,42.966,92.174C37.855,94.567,32.519,96.54,26.988,98.06C25.921,98.351,24.854,98.643,23.787,98.869C20.132,99.774,16.413,100.421,12.629,100.906C11.561,101.036,10.494,101.165,9.427,101.262C6.322,101.521,3.152,101.682,-0.017,101.682C-1.602,101.682,-3.187,101.65,-4.739,101.585C-5.838,101.521,-6.97,101.456,-8.07,101.359C-8.07,101.359,-8.103,101.359,-8.103,101.359C-13.794,100.938,-19.292,100,-24.694,98.643C-25.858,98.383,-27.022,98.06,-28.186,97.736C-32.035,96.605,-35.787,95.279,-39.442,93.759C-39.442,93.759,-39.473,93.759,-39.473,93.759C-40.669,93.241,-41.867,92.724,-43.031,92.142C-48.691,89.522,-54.059,86.385,-59.072,82.795C-60.301,81.889,-61.499,80.984,-62.695,80.046C-69.778,74.515,-76.117,68.047,-81.486,60.835C-81.486,60.835,-81.486,60.802,-81.486,60.802C-81.518,60.77,-81.518,60.77,-81.486,60.738C-81.486,60.738,-81.518,60.706,-81.518,60.706C-82.682,59.153,-83.813,57.633,-84.913,55.983C-89.699,48.739,-93.58,40.848,-96.426,32.471C-96.911,30.983,-97.398,29.463,-97.818,27.911C-99.144,23.254,-100.147,18.467,-100.794,13.583C-101.02,11.934,-101.214,10.252,-101.344,8.571C-101.57,5.757,-101.699,2.878,-101.699,0C-101.699,-4.528,-101.408,-8.991,-100.826,-13.357C-100.567,-15.297,-100.275,-17.238,-99.887,-19.146C-98.82,-24.838,-97.267,-30.369,-95.262,-35.705C-94.259,-38.39,-93.161,-41.009,-91.932,-43.564C-88.342,-51.132,-83.846,-58.183,-78.575,-64.554C-75.599,-68.176,-72.365,-71.604,-68.937,-74.742C-68.937,-74.742,-68.904,-74.774,-68.904,-74.774C-55.449,-87.161,-38.698,-95.99,-20.069,-99.709C-20.069,-99.709,-20.036,-99.709,-20.036,-99.709C-15.573,-100.615,-11.012,-101.197,-6.387,-101.488C-6.387,-101.488,-6.323,-101.488,-6.323,-101.488C-4.221,-101.617,-2.152,-101.682,-0.017,-101.682C1.438,-101.682,2.894,-101.65,4.317,-101.585C6.84,-101.488,9.33,-101.294,11.788,-101.003C15.281,-100.615,18.709,-100.033,22.104,-99.257C23.884,-98.868,25.63,-98.448,27.377,-97.963C29.996,-97.219,32.584,-96.378,35.106,-95.473C36.626,-94.891,38.146,-94.308,39.667,-93.661C45.294,-91.268,50.695,-88.357,55.772,-85.026C56.095,-84.832,56.388,-84.638,56.712,-84.412C56.712,-84.412,58.553,-83.15,58.553,-83.15C58.716,-83.021,58.91,-82.892,59.071,-82.794C84.88,-64.36,101.699,-34.153,101.699,0Z" /></g><g id="i14" transform="matrix(1,0,0,1,82.575,75.655)"><path fill="#303240" fill-rule="evenodd" d="M78.445,-56.517C78.381,-56.517,78.315,-56.485,78.251,-56.453C77.183,-56.064,76.116,-55.677,75.048,-55.256C72.687,-54.415,70.359,-53.509,67.998,-52.604C66.996,-52.248,65.993,-51.86,64.99,-51.44C63.017,-50.696,61.045,-49.887,59.072,-49.111C58.069,-48.69,57.066,-48.303,56.064,-47.85C52.926,-46.588,49.822,-45.294,46.75,-43.936C45.747,-43.516,44.744,-43.063,43.774,-42.642C39.246,-40.638,34.751,-38.567,30.32,-36.401C29.349,-35.948,28.38,-35.463,27.441,-34.977C24.24,-33.425,21.038,-31.776,17.901,-30.094C16.93,-29.577,15.961,-29.059,15.022,-28.542C13.503,-27.701,11.982,-26.86,10.495,-26.019C8.651,-24.952,6.808,-23.884,4.997,-22.817C4.059,-22.267,3.153,-21.718,2.248,-21.135C2.086,-21.071,1.957,-20.974,1.795,-20.877C1.795,-20.877,1.762,-20.877,1.762,-20.877C0.663,-20.198,-0.436,-19.518,-1.503,-18.839C-4.996,-16.64,-8.426,-14.376,-11.724,-12.047C-12.921,-11.271,-14.118,-10.431,-15.282,-9.557C-17.352,-8.102,-19.389,-6.581,-21.394,-5.029C-22.688,-4.091,-23.95,-3.121,-25.179,-2.151C-28.154,0.242,-31.064,2.636,-33.846,5.094C-35.301,6.323,-36.724,7.584,-38.115,8.878C-41.77,12.241,-45.263,15.67,-48.561,19.163C-48.561,19.163,-48.561,19.194,-48.561,19.194C-50.987,21.685,-53.219,24.143,-55.386,26.698C-55.418,26.698,-55.386,26.73,-55.386,26.73C-60.56,32.713,-65.216,38.826,-69.421,45.197C-71.944,49.014,-74.789,53.639,-77.054,58.749C-77.538,57.261,-78.025,55.741,-78.445,54.189C-76.44,50.178,-74.176,46.556,-72.139,43.419C-59.946,25.016,-43.969,8.198,-24.402,-6.84C-24.37,-6.905,-24.305,-6.937,-24.24,-6.97C-17.124,-12.468,-9.493,-17.707,-1.408,-22.72C-1.408,-22.72,-1.375,-22.752,-1.343,-22.752C1.989,-24.822,5.418,-26.86,8.911,-28.833C30.159,-40.864,52.7,-50.469,75.145,-58.749C75.468,-58.555,75.76,-58.361,76.084,-58.134C76.084,-58.134,76.6,-58.555,76.6,-58.555C77.053,-58.005,77.507,-57.455,77.926,-56.873C78.089,-56.744,78.284,-56.614,78.445,-56.517Z" /></g><g id="i15" transform="matrix(1,0,0,1,71.111,60.987)"><path fill="#303240" fill-rule="evenodd" d="M70.505,-52.717C26.714,-35.156,-13.745,-8.15,-46.249,25.615C-56.113,35.867,-63.843,45.246,-69.955,54.529C-70.182,52.879,-70.376,51.198,-70.505,49.516C-64.651,41.139,-57.472,32.568,-48.578,23.35C-16.074,-10.382,22.962,-36.838,65.944,-54.529C67.464,-53.946,68.984,-53.364,70.505,-52.717Z" /></g><g id="i16" transform="matrix(1,0,0,1,65.224,45.625)"><path fill="#303240" fill-rule="evenodd" d="M64.102,-41.656C9.509,-19.373,-32.731,8.506,-64.102,42.95C-63.843,41.01,-63.552,39.069,-63.164,37.161C-32.601,4.884,7.632,-21.572,58.829,-42.95C60.608,-42.561,62.355,-42.141,64.102,-41.656Z" /></g><g id="i17" transform="matrix(1,0,0,1,60.211,33.287)"><path fill="#303240" fill-rule="evenodd" d="M53.526,-32.358C16.591,-18.386,-23.06,1.568,-53.526,32.94C-52.523,30.255,-51.423,27.637,-50.194,25.081C-21.959,-1.794,12.872,-19.841,46.055,-32.94C48.578,-32.842,51.068,-32.65,53.526,-32.358Z" /></g><g id="i18" transform="matrix(1,0,0,1,59.467,18.911)"><path fill="#303240" fill-rule="evenodd" d="M36.094,-18.467C10.447,-9.347,-13.714,3.008,-36.094,18.467C-33.118,14.845,-29.885,11.416,-26.456,8.279C-26.456,8.279,-26.423,8.247,-26.423,8.247C-10.899,-1.488,5.433,-9.832,22.412,-16.689C22.412,-16.689,22.445,-16.689,22.445,-16.689C22.445,-16.689,36.094,-18.467,36.094,-18.467Z" /></g><g id="i19" transform="matrix(1,0,0,1,106.718,126.561)"><path fill="#303240" fill-rule="evenodd" d="M22.219,73.431C21.152,73.722,20.085,74.015,19.018,74.241C18.629,34.04,9.736,-6.193,-6.791,-42.934C-7.988,-45.682,-9.282,-48.431,-10.607,-51.181C-14.1,-58.296,-17.852,-65.249,-21.894,-72.041C-21.992,-72.235,-22.121,-72.397,-22.219,-72.591C-22.219,-72.591,-19.437,-74.241,-19.437,-74.241C-19.34,-74.079,-19.243,-73.884,-19.146,-73.723C7.213,-29.544,21.573,21.943,22.219,73.431Z" /></g><g id="i20" transform="matrix(1,0,0,1,122.744,119.72)"><path fill="#303240" fill-rule="evenodd" d="M25.243,72.898C24.24,73.415,23.205,73.934,22.171,74.386C16.284,22.995,0.048,-27.556,-25.147,-72.608C-25.179,-72.672,-25.211,-72.736,-25.243,-72.801C-25.243,-72.801,-22.397,-74.386,-22.397,-74.386C-22.364,-74.322,-22.299,-74.225,-22.267,-74.16C2.927,-29.043,19.26,21.507,25.243,72.898Z" /></g><g id="i21" transform="matrix(1,0,0,1,135.099,112.67)"><path fill="#303240" fill-rule="evenodd" d="M25.502,72.348C24.531,73.027,23.562,73.674,22.591,74.321C12.823,23.9,0.986,-27.038,-25.081,-71.993C-25.21,-72.219,-25.373,-72.478,-25.502,-72.705C-25.502,-72.705,-22.721,-74.321,-22.721,-74.321C-22.56,-74.03,-22.365,-73.707,-22.203,-73.416C3.864,-28.461,15.767,22.186,25.502,72.348Z" /></g><g id="i22" transform="matrix(1,0,0,1,151.237,102.514)"><path fill="#303240" fill-rule="evenodd" d="M25.146,68.693C24.273,69.663,23.367,70.602,22.428,71.508C12.371,26.197,-1.44,-24.16,-24.887,-69.503C-24.985,-69.664,-25.049,-69.858,-25.146,-70.019C-25.146,-70.019,-22.268,-71.508,-22.268,-71.508C-22.138,-71.282,-22.008,-71.023,-21.911,-70.797C1.31,-25.874,15.056,23.803,25.146,68.693Z" /></g><g id="i23" transform="matrix(1,0,0,1,163.316,91.259)"><path fill="#303240" fill-rule="evenodd" d="M25.776,63.163C25.776,63.163,25.776,63.195,25.776,63.195C24.968,64.521,24.128,65.783,23.286,67.044C13.842,21.41,-2.264,-22.413,-24.676,-63.455C-25.033,-64.134,-25.388,-64.813,-25.776,-65.492C-25.776,-65.492,-22.93,-67.044,-22.93,-67.044C-22.509,-66.268,-22.089,-65.492,-21.668,-64.716C0.292,-24.451,16.204,18.467,25.776,63.163Z" /></g><g id="i24" transform="matrix(1,0,0,1,172.922,79.94)"><path fill="#303240" fill-rule="evenodd" d="M25.874,53.169C25.906,53.169,25.874,53.202,25.874,53.202C25.292,54.948,24.71,56.598,24.062,58.28C12.064,18.565,-4.495,-19.663,-25.355,-55.725C-25.549,-56.048,-25.712,-56.34,-25.906,-56.663C-25.906,-56.663,-23.125,-58.28,-23.125,-58.28C-22.866,-57.828,-22.575,-57.341,-22.349,-56.889C-2.199,-22.024,13.94,14.844,25.874,53.169Z" /></g><g id="i4" transform="matrix(1,0,0,1,180.053,66.761)"><path fill="#303240" fill-rule="evenodd" d="M23.4,41.348C23.238,44.161,22.947,46.911,22.559,49.66C12.663,16.154,-0.113,-18.418,-22.428,-46.361C-22.751,-46.782,-23.077,-47.17,-23.4,-47.59C-23.4,-47.59,-21.394,-49.241,-21.394,-49.241C-21.394,-49.241,-20.876,-49.66,-20.876,-49.66C-20.423,-49.11,-19.971,-48.562,-19.551,-47.98C-19.421,-47.85,-19.325,-47.721,-19.227,-47.559C1.407,-21.395,13.859,10.203,23.4,41.348Z" /></g><g id="i5" transform="matrix(1,0,0,1,25.444,127.903)"><path fill="#303240" fill-rule="evenodd" d="M8.668,-33.312C8.636,-33.248,8.603,-33.15,8.57,-33.085C8.538,-33.054,8.538,-33.054,8.538,-33.021C-1.521,-11.902,-6.081,10.867,-5.013,34.735C-6.178,33.183,-7.31,31.662,-8.409,30.013C-8.668,10.672,-5.271,-7.892,1.715,-25.485C1.715,-25.518,1.714,-25.518,1.746,-25.55C2.975,-28.655,4.302,-31.695,5.757,-34.735C5.757,-34.735,8.668,-33.312,8.668,-33.312Z" /></g><g id="i6" transform="matrix(1,0,0,1,41.873,132.075)"><path fill="#303240" fill-rule="evenodd" d="M6.857,-51.327C-2.101,-17.013,-4.075,17.884,1.003,52.652C-0.226,51.746,-1.423,50.84,-2.619,49.902C-6.985,17.335,-5.271,-15.362,2.588,-47.542C3.008,-49.256,3.429,-50.938,3.881,-52.652C3.881,-52.652,6.985,-51.844,6.985,-51.844C6.953,-51.682,6.889,-51.489,6.857,-51.327Z" /></g><g id="i7" transform="matrix(1,0,0,1,56.751,132.171)"><path fill="#303240" fill-rule="evenodd" d="M5.725,63.52C4.529,63.002,3.331,62.485,2.166,61.903C-5.175,22.252,-5.724,-18.951,0.647,-58.667C0.906,-60.252,1.164,-61.804,1.423,-63.356C1.423,-63.421,1.455,-63.455,1.455,-63.52C1.455,-63.52,1.585,-63.486,1.585,-63.486C1.585,-63.486,4.658,-62.968,4.658,-62.968C4.561,-62.483,4.495,-62.031,4.431,-61.546C-2.62,-20.408,-2.134,22.414,5.725,63.52Z" /></g><g id="i8" transform="matrix(1,0,0,1,69.59,131.509)"><path fill="#303240" fill-rule="evenodd" d="M7.665,69.066C6.5,68.807,5.336,68.483,4.172,68.16C-5.498,24.305,-7.665,-20.456,-2.296,-65.411C-2.167,-66.64,-2.005,-67.837,-1.844,-69.066C-1.844,-69.066,1.358,-68.678,1.358,-68.678C1.326,-68.419,1.293,-68.16,1.262,-67.901C-4.56,-21.782,-2.426,24.143,7.665,69.066Z" /></g><g id="i9" transform="matrix(1,0,0,1,88.348,128.21)"><path fill="#303240" fill-rule="evenodd" d="M8.862,75.307C7.762,75.242,6.631,75.178,5.531,75.081C5.531,75.081,5.498,75.081,5.498,75.081C-4.528,26.989,-8.862,-22.138,-7.277,-71.394C-7.277,-72.688,-7.244,-73.981,-7.18,-75.275C-7.18,-75.275,-7.18,-75.307,-7.18,-75.307C-7.18,-75.307,-7.116,-75.307,-7.116,-75.307C-7.116,-75.307,-3.946,-75.178,-3.946,-75.178C-3.978,-74.596,-3.978,-74.014,-3.978,-73.432C-3.978,-73.432,-4.01,-73.432,-4.01,-73.432C-5.724,-23.431,-1.423,26.471,8.862,75.307Z" /></g><g id="i10" transform="matrix(1,0,0,1,105.328,139.012)"><path fill="#303240" fill-rule="evenodd" d="M9.25,63.826C8.183,63.955,7.114,64.085,6.047,64.182C-0.519,21.136,-6.34,-21.2,-9.218,-63.633C-9.25,-63.73,-9.25,-63.859,-9.25,-63.956C-9.25,-63.956,-6.017,-64.182,-6.017,-64.182C-5.822,-61.239,-5.596,-58.296,-5.401,-55.385C-2.361,-15.831,3.138,23.69,9.25,63.826Z" /></g></g></g></g></g></g></g></g></g><g id="i2"><g transform="translate(564.412,658.82)"><g transform="rotate(1)"><animateTransform repeatCount="indefinite" type="rotate" attributeName="transform" dur="3.033s" begin="0s" calcMode="spline" values="1; -1.5; -1.5" keyTimes="0; 0.164835; 1" keySplines="0.333 0 0.667 1; 0 0 1 1" fill="freeze" /><g transform="scale(1,1) translate(-199.487,-184.239)"><g id="i25"><g transform="translate(31.219,144.856)"><g transform="rotate(0)"><animateTransform repeatCount="indefinite" type="rotate" attributeName="transform" dur="3.033s" begin="0s" calcMode="spline" values="0; -5; -5" keyTimes="0; 0.164835; 1" keySplines="0.73 0 0.28 1; 0 0 1 1" fill="freeze" /><g transform="scale(1,1) translate(-94.849,-180.833)"><g id="i26"><g transform="translate(91.023,6.045)"><animateTransform repeatCount="indefinite" type="translate" attributeName="transform" dur="3.033s" begin="0s" calcMode="spline" values="91.023 6.045; 89.055 -0.15; 89.055 -0.15" keyTimes="0; 0.164835; 1" keySplines="0.73 0 0.28 1; 0 0 1 1" fill="freeze" /><g transform="rotate(-5)"><animateTransform repeatCount="indefinite" type="rotate" attributeName="transform" dur="3.033s" begin="0s" calcMode="spline" values="-5; 5; 5" keyTimes="0; 0.164835; 1" keySplines="0.73 0 0.28 1; 0 0 1 1" fill="freeze" /><g transform="scale(1,1) translate(-33.004,-55.268)"><g id="i9" transform="matrix(1,0,0,1,31.003,40.268)"><path fill="#ffffff" fill-rule="evenodd" d="M27.43,8.494C27.43,8.494,1.556,-40.017,-4.912,-40.017C-11.381,-40.017,-30.753,-14.177,-24.317,24.6C-24.317,24.621,-21.433,38.087,-15.791,42.428C-12.372,45.059,-7.099,45.103,0.704,43.416C8.063,41.825,29.018,31.309,30.966,28.097C33.799,23.427,27.43,8.494,27.43,8.494Z" /></g><g id="i10" transform="matrix(1,0,0,1,40.194,29.654)"><path fill="#bfc3c6" fill-rule="evenodd" d="M16.592,26.732C11.417,26.732,6.214,26.982,1.067,27.483C-2.077,21.001,-7.414,6.802,-9.417,-0.125C-10.196,-2.824,-13.841,-16.568,-10.697,-20.046C-2.462,-11.115,13.73,19.239,13.73,19.239C13.73,19.239,16.509,26.704,16.592,26.732Z" /></g></g></g></g></g></g></g></g></g></g></g></g></g><g id="i2"><g transform="translate(564.412,658.82)"><g transform="rotate(1)"><animateTransform repeatCount="indefinite" type="rotate" attributeName="transform" dur="3.033s" begin="0s" calcMode="spline" values="1; -1.5; -1.5" keyTimes="0; 0.164835; 1" keySplines="0.333 0 0.667 1; 0 0 1 1" fill="freeze" /><g transform="scale(1,1) translate(-199.487,-184.239)"><g id="i25"><g transform="translate(31.219,144.856)"><g transform="rotate(0)"><animateTransform repeatCount="indefinite" type="rotate" attributeName="transform" dur="3.033s" begin="0s" calcMode="spline" values="0; -5; -5" keyTimes="0; 0.164835; 1" keySplines="0.73 0 0.28 1; 0 0 1 1" fill="freeze" /><g transform="scale(1,1) translate(-94.849,-180.833)"><g id="i10" transform="matrix(1,0,0,1,89.848,94.833)"><path fill="#ffffff" fill-rule="evenodd" d="M12.399,93.024C9.371,94.583,0.6,93.646,-2.505,92.288C-44.29,74.015,-58.65,49.403,-64.342,32.1C-64.471,31.679,-64.632,31.227,-64.762,30.806C-65.893,27.184,-66.638,23.918,-67.187,21.136C-67.187,21.136,-89.598,-66.997,9.308,-94.583C9.308,-94.583,27.865,-94.582,30.032,-93.288C35.304,-90.119,45.815,-83.521,56.035,-75.112C61.694,-70.455,67.29,-65.216,71.882,-59.718C72.303,-59.2,72.723,-58.715,73.079,-58.198C76.313,-53.961,78.188,-49.886,79.158,-46.134C80.322,-41.606,80.162,-37.531,79.45,-34.168C79.45,-34.168,89.599,53.292,12.399,93.024Z" /></g></g></g></g></g></g></g></g></g><g id="i2"><g transform="translate(564.412,658.82)"><g transform="rotate(1)"><animateTransform repeatCount="indefinite" type="rotate" attributeName="transform" dur="3.033s" begin="0s" calcMode="spline" values="1; -1.5; -1.5" keyTimes="0; 0.164835; 1" keySplines="0.333 0 0.667 1; 0 0 1 1" fill="freeze" /><g transform="scale(1,1) translate(-199.487,-184.239)"><g id="i9" transform="matrix(1,0,0,1,189.487,98.24)"><path fill="#ffffff" fill-rule="evenodd" d="M-166.805,49.992C-165.616,53.166,-159.563,55.622,-156.426,56.948C-107.008,78.164,-51.186,97.989,21.809,94.949C75.657,92.717,117.056,84.244,147.069,64.128C160.328,55.266,171.357,44.141,180.283,30.266C180.283,30.266,189.237,-0.538,184.639,-39.702C183.305,-51.065,172.945,-81.155,142.669,-97.99C142.669,-97.99,113.374,-48.691,65.966,-55.344C18.559,-61.997,4.995,-66.984,-36.939,-49.049C-36.939,-49.049,-54.056,-73.193,-91.305,-71.506C-128.555,-69.82,-189.237,-9.855,-166.805,49.992Z" /></g><g id="i10" transform="matrix(1,0,0,1,184.472,173.929)"><path fill="#080b3c" fill-rule="evenodd" d="M151.747,-11.563C121.734,8.553,80.337,17.028,26.488,19.26C-46.507,22.3,-102.329,2.474,-151.747,-18.742C-144.21,-22.267,-133.539,-22.299,-123.448,-21.846C-100.906,-20.844,-78.267,-18.903,-56.501,-12.985C-43.176,-9.363,-30.304,-4.252,-16.882,-0.986C22.283,8.523,63.616,1.892,102.426,-8.974C117.303,-13.146,133.118,-17.965,147.898,-13.373C149.257,-12.953,150.647,-12.404,151.747,-11.563Z" /></g></g></g></g></g><g id="i2"><g transform="translate(564.412,658.82)"><g transform="rotate(1)"><animateTransform repeatCount="indefinite" type="rotate" attributeName="transform" dur="3.033s" begin="0s" calcMode="spline" values="1; -1.5; -1.5" keyTimes="0; 0.164835; 1" keySplines="0.333 0 0.667 1; 0 0 1 1" fill="freeze" /><g transform="scale(1,1) translate(-199.487,-184.239)"><g id="i25"><g transform="translate(31.219,144.856)"><g transform="rotate(0)"><animateTransform repeatCount="indefinite" type="rotate" attributeName="transform" dur="3.033s" begin="0s" calcMode="spline" values="0; -5; -5" keyTimes="0; 0.164835; 1" keySplines="0.73 0 0.28 1; 0 0 1 1" fill="freeze" /><g transform="scale(1,1) translate(-94.849,-180.833)"><g transform="matrix(1,0,0,1,15.833,20.731)" id="i27"><g id="i10" transform="matrix(1,0,0,1,24.977,52.967)"><path fill="#080b3c" fill-rule="evenodd" d="M14.248,-52.136C19.843,-40.687,24.727,-24.128,22.463,-11.579C21.492,-6.081,19.519,-0.842,17.546,4.397C13.471,15.297,9.363,26.196,5.288,37.095C4.059,40.297,2.831,43.564,0.6,46.184C-3.605,51.164,-9.88,52.717,-16.057,51.941C-17.189,48.319,-17.932,45.051,-18.482,42.27C-18.482,42.27,-18.91,40.735,-18.91,40.735C-24.727,19.842,-23.165,-2.563,-13.774,-22.111C-13.12,-23.473,-12.433,-24.807,-11.712,-26.103C-2.19,-43.221,13.965,-52.717,14.248,-52.136Z" /></g></g></g></g></g></g></g></g></g></g><g id="i2"><g transform="translate(564.412,658.82)"><g transform="rotate(1)"><animateTransform repeatCount="indefinite" type="rotate" attributeName="transform" dur="3.033s" begin="0s" calcMode="spline" values="1; -1.5; -1.5" keyTimes="0; 0.164835; 1" keySplines="0.333 0 0.667 1; 0 0 1 1" fill="freeze" /><g transform="scale(1,1) translate(-199.487,-184.239)"><g id="i25"><g transform="translate(31.219,144.856)"><g transform="rotate(0)"><animateTransform repeatCount="indefinite" type="rotate" attributeName="transform" dur="3.033s" begin="0s" calcMode="spline" values="0; -5; -5" keyTimes="0; 0.164835; 1" keySplines="0.73 0 0.28 1; 0 0 1 1" fill="freeze" /><g transform="scale(1,1) translate(-94.849,-180.833)"><g id="i28"><g transform="translate(43.665,50.038)"><animateTransform repeatCount="indefinite" type="translate" attributeName="transform" dur="3.033s" begin="0s" calcMode="spline" values="43.665 50.038; 41.953 52.398; 41.953 52.398" keyTimes="0; 0.164835; 1" keySplines="0.73 0 0.28 1; 0 0 1 1" fill="freeze" /><g transform="rotate(0)"><animateTransform repeatCount="indefinite" type="rotate" attributeName="transform" dur="3.033s" begin="0s" calcMode="spline" values="0; -10; -10" keyTimes="0; 0.164835; 1" keySplines="0.73 0 0.28 1; 0 0 1 1" fill="freeze" /><g transform="scale(1,1) translate(-50.717,-54.134)"><g id="i9" transform="matrix(1,0,0,1,35.861,58.483)"><path fill="#080b3c" fill-rule="evenodd" d="M25.892,-31.332C25.892,-31.332,-19.441,-58.233,-29.143,-48.53C-29.143,-48.53,-35.611,-35.594,-29.143,-12.955C-25.851,-1.43,-11.329,44.27,-6.817,58.233C-6.817,58.233,16.173,40.099,25.892,8.585C35.611,-22.928,25.892,-31.332,25.892,-31.332Z" /></g><g id="i10" transform="matrix(1,0,0,1,32.82,39.298)"><path fill="#bfc3c6" fill-rule="evenodd" d="M-16.996,-15.891C-15.725,0.25,-3.251,12.986,3.35,27.77C8.558,17.39,13.421,6.838,17.93,-3.864C17.755,-3.45,-2.079,-15.635,-3.794,-16.839C-8.926,-20.439,-17.93,-27.77,-16.996,-15.891Z" /></g></g></g></g></g></g></g></g></g></g></g></g></g><g id="i2"><g transform="translate(564.412,658.82)"><g transform="rotate(1)"><animateTransform repeatCount="indefinite" type="rotate" attributeName="transform" dur="3.033s" begin="0s" calcMode="spline" values="1; -1.5; -1.5" keyTimes="0; 0.164835; 1" keySplines="0.333 0 0.667 1; 0 0 1 1" fill="freeze" /><g transform="scale(1,1) translate(-199.487,-184.239)"><g id="i29"><g transform="translate(359.711,114.929)"><g transform="rotate(0)"><animateTransform repeatCount="indefinite" type="rotate" attributeName="transform" dur="3.033s" begin="0s" calcMode="spline" values="0; 15; 15" keyTimes="0; 0.164835; 1" keySplines="0.333 0 0.667 1; 0 0 1 1" fill="freeze" /><g transform="scale(1,1) translate(-64.912,-269.665)"><g id="i8" transform="matrix(1,0,0,1,62.912,148.665)"><path fill="#ffffff" fill-rule="evenodd" d="M53.768,47.35C36.026,100.577,19.15,127.747,7.53,141.432C1.6,148.414,-9.796,145.313,-11.462,136.306C-13.775,123.813,-9.149,111.046,0.629,102.935C0.629,102.935,5.255,99.097,5.255,99.097C5.255,99.097,32.971,40.883,13.954,-13.969C12.467,-18.335,10.657,-22.735,8.49,-27.036C-20.618,-85.251,-62.662,-98.187,-33.554,-127.294C-12.435,-148.414,40.961,-98.091,56.42,-31.823C62.274,-6.726,62.663,20.701,53.768,47.35Z" /></g><g id="i9" transform="matrix(1,0,0,1,59.791,67.473)"><path fill="#080b3c" fill-rule="evenodd" d="M59.541,49.369C56.565,49.272,53.525,48.787,50.68,48.238C42.982,46.717,33.861,45.586,28.331,51.149C25.614,53.898,24.418,57.747,22.606,61.175C21.346,63.6,19.437,65.994,17.076,67.223C15.589,62.857,13.777,58.458,11.61,54.157C-17.497,-4.058,-59.541,-16.996,-30.434,-46.103C-9.314,-67.223,44.082,-16.899,59.541,49.369Z" /></g><g id="i10" transform="matrix(1,0,0,1,78.344,189.783)"><path stroke-linejoin="round" stroke-linecap="round" stroke-width="0.519" stroke="#080b3c" d="M-1.734,-58.893C-2.828,-61.392,8.913,-32.871,4.379,2.416C-0.123,37.463,-8.913,61.391,-8.913,61.391" /></g></g></g></g></g></g></g></g></g><g id="i2"><g transform="translate(564.412,658.82)"><g transform="rotate(1)"><animateTransform repeatCount="indefinite" type="rotate" attributeName="transform" dur="3.033s" begin="0s" calcMode="spline" values="1; -1.5; -1.5" keyTimes="0; 0.164835; 1" keySplines="0.333 0 0.667 1; 0 0 1 1" fill="freeze" /><g transform="scale(1,1) translate(-199.487,-184.239)"><g id="i25"><g transform="translate(31.219,144.856)"><g transform="rotate(0)"><animateTransform repeatCount="indefinite" type="rotate" attributeName="transform" dur="3.033s" begin="0s" calcMode="spline" values="0; -5; -5" keyTimes="0; 0.164835; 1" keySplines="0.73 0 0.28 1; 0 0 1 1" fill="freeze" /><g transform="scale(1,1) translate(-94.849,-180.833)"><g transform="matrix(1,0,0,1,53.76,1.201)" id="i30"><g id="i10" transform="matrix(1,0,0,1,17.789,10.829)"><path stroke-linejoin="round" stroke-linecap="round" stroke-width="0.519" stroke="#080b3c" d="M16.492,-9.532C8.647,-6.147,0.527,-2.099,-6.079,2.305C-12.685,6.709,-16.492,9.532,-16.492,9.532" /></g></g></g></g></g></g></g></g></g></g><g id="i2"><g transform="translate(564.412,658.82)"><g transform="rotate(1)"><animateTransform repeatCount="indefinite" type="rotate" attributeName="transform" dur="3.033s" begin="0s" calcMode="spline" values="1; -1.5; -1.5" keyTimes="0; 0.164835; 1" keySplines="0.333 0 0.667 1; 0 0 1 1" fill="freeze" /><g transform="scale(1,1) translate(-199.487,-184.239)"><g id="i31"><g transform="translate(316.507,88.434)"><g transform="rotate(-15)"><animateTransform repeatCount="indefinite" type="rotate" attributeName="transform" dur="3.033s" begin="0s" calcMode="spline" values="-15; 0; 0" keyTimes="0; 0.164835; 1" keySplines="0.727 0 0.278 1; 0 0 1 1" fill="freeze" /><g transform="scale(1,1) translate(-89.83,-200.28)"><g id="i4" transform="matrix(1,0,0,1,70.868,120.279)"><path fill="#ffffff" fill-rule="evenodd" d="M-65.744,55.957C-65.847,54.857,-65.949,53.565,-66.086,52.111C-66.498,46.97,-67.05,39.566,-67.714,29.091C-70.542,-15.204,-29.098,-26.105,-12.906,-28.671C-8.996,-29.271,-6.539,-29.413,-6.539,-29.413C-6.539,-29.413,-13.372,-107.001,-3.7,-113.515C5.973,-120.029,41.867,-52.28,41.867,-52.28C41.867,-52.28,53.414,-26.946,64.193,4.822C69.841,21.471,70.542,39.404,66.121,56.421C60.839,76.755,51.526,102.338,36.851,110.831C20.954,120.03,-24.674,107.278,-49.449,88.242C-64.642,76.569,-65.744,55.957,-65.744,55.957Z" /></g><g id="i5" transform="matrix(1,0,0,1,31.843,133.29)"><path fill="#080b3c" fill-rule="evenodd" d="M29.452,-24.011C26.034,-14.972,15.217,-11.364,8.848,-4.056C3.7,1.886,1.83,9.916,-0.366,17.494C-2.976,26.498,-7.034,36.834,-16.886,39.694C-20.891,40.877,-24.286,40.829,-27.137,39.905C-27.549,34.764,-28.102,27.36,-28.765,16.884C-31.593,-27.411,9.85,-38.31,26.042,-40.877C29.912,-36.238,31.593,-29.649,29.452,-24.011Z" /></g><g id="i6" transform="matrix(1,0,0,1,30.631,201.393)"><path stroke-linejoin="round" stroke-linecap="round" stroke-width="0.519" stroke="#080b3c" d="M-25.392,-30.793C-25.392,-30.793,-27.47,-4.221,-4.267,13.286C18.936,30.792,27.47,30.753,27.47,30.753" /></g><g id="i7" transform="matrix(1,0,0,1,62.738,92.88)"><path stroke-linejoin="round" stroke-linecap="round" stroke-width="0.519" stroke="#080b3c" d="M-14.395,3.097C-14.395,3.097,-4.618,-3.098,14.395,1.281" /></g><g id="i8" transform="matrix(1,0,0,1,125.839,135.66)"><path stroke-linejoin="round" stroke-linecap="round" stroke-width="0.262" stroke="#080b3c" d="M-0.064,2.765C0.249,0.935,0.187,-0.96,-0.249,-2.765" /></g><g id="i9" transform="matrix(1,0,0,1,127.684,128.242)"><path stroke-linejoin="round" stroke-linecap="round" stroke-width="0.262" stroke="#080b3c" d="M-0.995,-3.061C0.304,-1.31,0.995,0.882,0.94,3.061" /></g><g id="i10" transform="matrix(1,0,0,1,129.737,139.163)"><path stroke-linejoin="round" stroke-linecap="round" stroke-width="0.262" stroke="#080b3c" d="M0.013,-3.823C0.153,-1.276,0.097,1.283,-0.152,3.823" /></g></g></g></g></g></g></g></g></g><g transform="matrix(1,0,0,1,342.155,587.313)" id="i32"><g id="i8" transform="matrix(1,0,0,1,8.319,3.836)"><path stroke-linejoin="round" stroke-linecap="round" stroke-width="0.262" stroke="#080b3c" d="M-1.827,-2.077C-0.907,-0.464,0.344,0.959,1.827,2.077" /></g><g id="i9" transform="matrix(1,0,0,1,11.507,10.819)"><path stroke-linejoin="round" stroke-linecap="round" stroke-width="0.262" stroke="#080b3c" d="M2.691,1.749C0.576,1.222,-1.351,-0.03,-2.691,-1.749" /></g><g id="i10" transform="matrix(1,0,0,1,3.019,3.66)"><path stroke-linejoin="round" stroke-linecap="round" stroke-width="0.262" stroke="#080b3c" d="M2.364,3.005C0.637,1.125,-0.945,-0.885,-2.364,-3.005" /></g></g><g id="i2"><g transform="translate(564.412,658.82)"><g transform="rotate(1)"><animateTransform repeatCount="indefinite" type="rotate" attributeName="transform" dur="3.033s" begin="0s" calcMode="spline" values="1; -1.5; -1.5" keyTimes="0; 0.164835; 1" keySplines="0.333 0 0.667 1; 0 0 1 1" fill="freeze" /><g transform="scale(1,1) translate(-199.487,-184.239)"><g id="i25"><g transform="translate(31.219,144.856)"><g transform="rotate(0)"><animateTransform repeatCount="indefinite" type="rotate" attributeName="transform" dur="3.033s" begin="0s" calcMode="spline" values="0; -5; -5" keyTimes="0; 0.164835; 1" keySplines="0.73 0 0.28 1; 0 0 1 1" fill="freeze" /><g transform="scale(1,1) translate(-94.849,-180.833)"><g transform="matrix(1,0,0,1,89.076,60.995)" id="i33"><g id="i10" transform="matrix(1,0,0,1,6.71,6.711)"><path fill="#080b3c" fill-rule="evenodd" d="M6.461,0C6.461,3.568,3.567,6.461,0,6.461C-3.569,6.461,-6.461,3.568,-6.461,0C-6.461,-3.568,-3.569,-6.461,0,-6.461C3.567,-6.461,6.461,-3.568,6.461,0Z" /></g></g></g></g></g></g></g></g></g></g><g id="i2"><g transform="translate(564.412,658.82)"><g transform="rotate(1)"><animateTransform repeatCount="indefinite" type="rotate" attributeName="transform" dur="3.033s" begin="0s" calcMode="spline" values="1; -1.5; -1.5" keyTimes="0; 0.164835; 1" keySplines="0.333 0 0.667 1; 0 0 1 1" fill="freeze" /><g transform="scale(1,1) translate(-199.487,-184.239)"><g id="i25"><g transform="translate(31.219,144.856)"><g transform="rotate(0)"><animateTransform repeatCount="indefinite" type="rotate" attributeName="transform" dur="3.033s" begin="0s" calcMode="spline" values="0; -5; -5" keyTimes="0; 0.164835; 1" keySplines="0.73 0 0.28 1; 0 0 1 1" fill="freeze" /><g transform="scale(1,1) translate(-94.849,-180.833)"><g transform="matrix(1.1,0,0,1.1,88.405,60.324)" id="i34"><g mask="url(#i0)" id="i35"><g id="i10" transform="matrix(1,0,0,1,6.71,6.711)"><path fill="#ffffff" fill-rule="evenodd" d="M6.461,0C6.461,3.568,3.567,6.461,0,6.461C-3.569,6.461,-6.461,3.568,-6.461,0C-6.461,-3.568,-3.569,-6.461,0,-6.461C3.567,-6.461,6.461,-3.568,6.461,0Z" /></g></g></g></g></g></g></g></g></g></g></g><g id="i2"><g transform="translate(564.412,658.82)"><g transform="rotate(1)"><animateTransform repeatCount="indefinite" type="rotate" attributeName="transform" dur="3.033s" begin="0s" calcMode="spline" values="1; -1.5; -1.5" keyTimes="0; 0.164835; 1" keySplines="0.333 0 0.667 1; 0 0 1 1" fill="freeze" /><g transform="scale(1,1) translate(-199.487,-184.239)"><g id="i25"><g transform="translate(31.219,144.856)"><g transform="rotate(0)"><animateTransform repeatCount="indefinite" type="rotate" attributeName="transform" dur="3.033s" begin="0s" calcMode="spline" values="0; -5; -5" keyTimes="0; 0.164835; 1" keySplines="0.73 0 0.28 1; 0 0 1 1" fill="freeze" /><g transform="scale(1,1) translate(-94.849,-180.833)"><g transform="matrix(1,0,0,1,126.045,22.398)" id="i36"><g id="i10" transform="matrix(1,0,0,1,5.438,5.438)"><path fill="#080b3c" fill-rule="evenodd" d="M5.188,0C5.188,2.866,2.865,5.188,0,5.188C-2.866,5.188,-5.188,2.866,-5.188,0C-5.188,-2.865,-2.866,-5.188,0,-5.188C2.865,-5.188,5.188,-2.865,5.188,0Z" /></g></g></g></g></g></g></g></g></g></g><g id="i2"><g transform="translate(564.412,658.82)"><g transform="rotate(1)"><animateTransform repeatCount="indefinite" type="rotate" attributeName="transform" dur="3.033s" begin="0s" calcMode="spline" values="1; -1.5; -1.5" keyTimes="0; 0.164835; 1" keySplines="0.333 0 0.667 1; 0 0 1 1" fill="freeze" /><g transform="scale(1,1) translate(-199.487,-184.239)"><g id="i25"><g transform="translate(31.219,144.856)"><g transform="rotate(0)"><animateTransform repeatCount="indefinite" type="rotate" attributeName="transform" dur="3.033s" begin="0s" calcMode="spline" values="0; -5; -5" keyTimes="0; 0.164835; 1" keySplines="0.73 0 0.28 1; 0 0 1 1" fill="freeze" /><g transform="scale(1,1) translate(-94.849,-180.833)"><g transform="matrix(1.1,0,0,1.1,125.501,21.854)" id="i37"><g mask="url(#i1)" id="i38"><g id="i10" transform="matrix(1,0,0,1,5.438,5.438)"><path fill="#ffffff" fill-rule="evenodd" d="M5.188,0C5.188,2.866,2.865,5.188,0,5.188C-2.866,5.188,-5.188,2.866,-5.188,0C-5.188,-2.865,-2.866,-5.188,0,-5.188C2.865,-5.188,5.188,-2.865,5.188,0Z" /></g></g></g></g></g></g></g></g></g></g></g><g id="i2"><g transform="translate(564.412,658.82)"><g transform="rotate(1)"><animateTransform repeatCount="indefinite" type="rotate" attributeName="transform" dur="3.033s" begin="0s" calcMode="spline" values="1; -1.5; -1.5" keyTimes="0; 0.164835; 1" keySplines="0.333 0 0.667 1; 0 0 1 1" fill="freeze" /><g transform="scale(1,1) translate(-199.487,-184.239)"><g id="i25"><g transform="translate(31.219,144.856)"><g transform="rotate(0)"><animateTransform repeatCount="indefinite" type="rotate" attributeName="transform" dur="3.033s" begin="0s" calcMode="spline" values="0; -5; -5" keyTimes="0; 0.164835; 1" keySplines="0.73 0 0.28 1; 0 0 1 1" fill="freeze" /><g transform="scale(1,1) translate(-94.849,-180.833)"><g transform="matrix(1,0,0,1,121.391,46.932)" id="i39"><g id="i8" transform="matrix(1,0,0,1,12.873,18.182)"><path stroke-linejoin="round" stroke-linecap="round" stroke-width="0.363" stroke="#080b3c" d="M-6.735,4.095C-6.735,4.095,-0.103,7.582,3.316,3.995C6.736,0.409,4.508,-2.424,4.508,-2.424C4.508,-2.424,-0.945,-7.583,-0.945,-7.583" /></g><g id="i9" transform="matrix(1,0,0,1,21.822,11.83)"><path stroke-linejoin="round" stroke-linecap="round" stroke-width="0.363" stroke="#080b3c" d="M-4.528,3.748C-4.528,3.748,0.668,5.074,2.598,0.886C4.528,-3.303,0.563,-5.074,0.563,-5.074" /></g><g id="i10" transform="matrix(1,0,0,1,7.257,7.46)"><path fill="#dee7ed" fill-rule="evenodd" d="M1.452,-4.551C-0.755,-1.88,-2.364,1.428,-5.297,3.275C-5.877,3.64,-6.554,4.006,-6.744,4.665C-7.007,5.573,-6.156,6.447,-5.266,6.764C-4.016,7.209,-2.641,7.013,-1.329,6.812C-0.395,6.668,0.539,6.525,1.473,6.381C2.756,6.184,4.102,5.959,5.117,5.15C6.945,3.69,7.007,0.94,6.561,-1.357C6.352,-2.431,5.984,-5.85,5.002,-6.467C3.82,-7.209,2.115,-5.353,1.452,-4.551Z" /></g></g></g></g></g></g></g></g></g></g><g id="i2"><g transform="translate(564.412,658.82)"><g transform="rotate(1)"><animateTransform repeatCount="indefinite" type="rotate" attributeName="transform" dur="3.033s" begin="0s" calcMode="spline" values="1; -1.5; -1.5" keyTimes="0; 0.164835; 1" keySplines="0.333 0 0.667 1; 0 0 1 1" fill="freeze" /><g transform="scale(1,1) translate(-199.487,-184.239)"><g id="i25"><g transform="translate(31.219,144.856)"><g transform="rotate(0)"><animateTransform repeatCount="indefinite" type="rotate" attributeName="transform" dur="3.033s" begin="0s" calcMode="spline" values="0; -5; -5" keyTimes="0; 0.164835; 1" keySplines="0.73 0 0.28 1; 0 0 1 1" fill="freeze" /><g transform="scale(1,1) translate(-94.849,-180.833)"><g transform="matrix(1,0,0,1,64.509,19.47)" id="i40"><g id="i9" transform="matrix(1,0,0,1,22.958,85.239)"><path fill="#dee7ed" fill-rule="evenodd" d="M22.709,0C22.709,12.542,12.542,22.708,0.001,22.708C-12.541,22.708,-22.709,12.542,-22.709,0C-22.709,-12.542,-12.541,-22.708,0.001,-22.708C12.542,-22.708,22.709,-12.542,22.709,0Z" /></g></g></g></g></g></g></g></g></g></g><g id="i2"><g transform="translate(564.412,658.82)"><g transform="rotate(1)"><animateTransform repeatCount="indefinite" type="rotate" attributeName="transform" dur="3.033s" begin="0s" calcMode="spline" values="1; -1.5; -1.5" keyTimes="0; 0.164835; 1" keySplines="0.333 0 0.667 1; 0 0 1 1" fill="freeze" /><g transform="scale(1,1) translate(-199.487,-184.239)"><g id="i25"><g transform="translate(31.219,144.856)"><g transform="rotate(0)"><animateTransform repeatCount="indefinite" type="rotate" attributeName="transform" dur="3.033s" begin="0s" calcMode="spline" values="0; -5; -5" keyTimes="0; 0.164835; 1" keySplines="0.73 0 0.28 1; 0 0 1 1" fill="freeze" /><g transform="scale(1,1) translate(-94.849,-180.833)"><g transform="matrix(1,0,0,1,64.509,19.47)" id="i41"><g id="i10" transform="matrix(1,0,0,1,92.147,14.772)"><path fill="#dee7ed" fill-rule="evenodd" d="M5.935,2.393C9.169,6.63,11.045,10.706,12.015,14.457C11.594,14.522,11.142,14.522,10.689,14.522C-1.859,14.522,-12.015,4.366,-12.015,-8.183C-12.015,-10.382,-11.691,-12.517,-11.109,-14.522C-5.449,-9.865,0.145,-4.625,4.738,0.874C5.159,1.392,5.579,1.875,5.935,2.393Z" /></g></g></g></g></g></g></g></g></g></g><g id="i2"><g transform="translate(564.412,658.82)"><g transform="rotate(1)"><animateTransform repeatCount="indefinite" type="rotate" attributeName="transform" dur="3.033s" begin="0s" calcMode="spline" values="1; -1.5; -1.5" keyTimes="0; 0.164835; 1" keySplines="0.333 0 0.667 1; 0 0 1 1" fill="freeze" /><g transform="scale(1,1) translate(-199.487,-184.239)"><g id="i42"><g transform="translate(66.372,111.637)"><animateTransform repeatCount="indefinite" type="translate" attributeName="transform" dur="3.033s" begin="0s" calcMode="spline" values="66.372 111.637; 85.372 116.262; 66.372 111.637; 66.372 111.637" keyTimes="0; 0.164835; 0.32967; 1" keySplines="0.333 0 0.1 1; 0.333 0 0.1 1; 0 0 1 1" fill="freeze" /><g transform="rotate(-15)"><animateTransform repeatCount="indefinite" type="rotate" attributeName="transform" dur="3.033s" begin="0s" calcMode="spline" values="-15; 0; -15; -15" keyTimes="0; 0.164835; 0.32967; 1" keySplines="0.333 0 0.1 1; 0.333 0 0.1 1; 0 0 1 1" fill="freeze" /><g transform="scale(1,1) translate(-50.115,-150.57)"><g id="i4" transform="matrix(1,0,0,1,91.241,88.61)"><path fill="#ffffff" fill-rule="evenodd" d="M58.219,38.875C58.396,28.726,54.335,19.063,57.519,1.878C58.322,-2.401,60.348,-6.203,61.981,-9.954C70.143,-28.709,89.975,-69.156,77.949,-79.966C68.929,-88.074,40.64,-64.972,22.469,-46.49C21.829,-45.865,21.223,-45.27,20.615,-44.642C15.362,-39.232,11.129,-34.349,8.65,-30.933C8.136,-30.264,7.651,-29.561,7.204,-28.918C3.569,-23.819,0.774,-19.424,-1.324,-15.91C-1.324,-15.91,-25.744,37.457,-46.87,53.057C-56.027,60.316,-70.937,67.4,-89.975,67.401C-89.975,67.401,40.853,88.074,40.853,88.074C40.853,88.074,48.599,72.951,53.37,64.663C60.701,51.926,58.219,38.875,58.219,38.875Z" /></g><g id="i5" transform="matrix(1,0,0,1,146.537,45.544)"><path fill="#080b3c" fill-rule="evenodd" d="M6.685,33.112C5.053,36.863,3.904,41.015,3.101,45.294C-2.458,43.176,-7.36,39.526,-11.918,35.646C-18.529,30.025,-24.754,23.724,-29.085,16.196C-32.205,10.756,-34.322,4.626,-34.68,-1.576C-16.586,-20.292,13.335,-45.294,22.653,-36.9C34.68,-26.09,14.848,14.357,6.685,33.112Z" /></g><g id="i7" transform="matrix(1,0,0,1,142.138,132.591)"><path stroke-linejoin="round" stroke-linecap="round" stroke-width="0.519" stroke="#080b3c" d="M6.8,-43.055C6.8,-43.055,4.313,-30.883,5.875,-21.915C7.438,-12.947,9.15,-4.228,5.84,11.228C2.531,26.685,-6.426,34.178,-9.15,43.055" /></g><g id="i8" transform="matrix(1,0,0,1,129.376,161.114)"><path stroke-linejoin="round" stroke-linecap="round" stroke-width="0.215" stroke="#191312" d="M-1.512,1.69C-0.289,0.784,0.747,-0.374,1.512,-1.69" /></g><g id="i9" transform="matrix(1,0,0,1,134.748,157.838)"><path stroke-linejoin="round" stroke-linecap="round" stroke-width="0.215" stroke="#191312" d="M1.161,-2.362C0.938,-0.589,0.107,1.103,-1.161,2.362" /></g><g id="i10" transform="matrix(1,0,0,1,129.752,165.446)"><path stroke-linejoin="round" stroke-linecap="round" stroke-width="0.215" stroke="#191312" d="M2.215,-2.218C0.855,-0.629,-0.629,0.855,-2.215,2.218" /></g></g></g></g></g></g></g></g></g><g id="i2"><g transform="translate(564.412,658.82)"><g transform="rotate(1)"><animateTransform repeatCount="indefinite" type="rotate" attributeName="transform" dur="3.033s" begin="0s" calcMode="spline" values="1; -1.5; -1.5" keyTimes="0; 0.164835; 1" keySplines="0.333 0 0.667 1; 0 0 1 1" fill="freeze" /><g transform="scale(1,1) translate(-199.487,-184.239)"><g transform="matrix(1,0,0,1,31.007,-38.433)" id="i43"><g id="i6" transform="matrix(1,0,0,1,58.81,99.441)"><path stroke-linejoin="round" stroke-linecap="round" stroke-width="0.519" stroke="#080b3c" d="M57.513,-59.127C33.198,-38.647,21.721,-1.966,-1.445,28.581C-24.612,59.127,-57.513,56.201,-57.513,56.201" /></g></g></g></g></g></g><g id="i2"><g transform="translate(564.412,658.82)"><g transform="rotate(1)"><animateTransform repeatCount="indefinite" type="rotate" attributeName="transform" dur="3.033s" begin="0s" calcMode="spline" values="1; -1.5; -1.5" keyTimes="0; 0.164835; 1" keySplines="0.333 0 0.667 1; 0 0 1 1" fill="freeze" /><g transform="scale(1,1) translate(-199.487,-184.239)"><g transform="matrix(1,0,0,1,31.007,-38.433)" id="i43"><g transform="matrix(1,0,0,1,-57.5,56.188)" opacity="0" id="i44" /></g></g></g></g></g><g id="i2"><g transform="translate(564.412,658.82)"><g transform="rotate(1)"><animateTransform repeatCount="indefinite" type="rotate" attributeName="transform" dur="3.033s" begin="0s" calcMode="spline" values="1; -1.5; -1.5" keyTimes="0; 0.164835; 1" keySplines="0.333 0 0.667 1; 0 0 1 1" fill="freeze" /><g transform="scale(1,1) translate(-199.487,-184.239)"><g transform="matrix(1,0,0,1,31.007,-38.433)" id="i43"><g opacity="0" id="i45"><g transform="translate(-28.438,21.563)"><animateTransform repeatCount="indefinite" type="translate" attributeName="transform" dur="3.033s" begin="0s" calcMode="spline" values="-28.438 21.563; 2.562 32.063; -28.438 21.563; -28.438 21.563" keyTimes="0; 0.164835; 0.32967; 1" keySplines="0.333 0 0.1 1; 0.333 0 0.1 1; 0 0 1 1" fill="freeze" /><g transform="scale(1,1) translate(0,0)" /></g></g></g></g></g></g></g><g id="i2"><g transform="translate(564.412,658.82)"><g transform="rotate(1)"><animateTransform repeatCount="indefinite" type="rotate" attributeName="transform" dur="3.033s" begin="0s" calcMode="spline" values="1; -1.5; -1.5" keyTimes="0; 0.164835; 1" keySplines="0.333 0 0.667 1; 0 0 1 1" fill="freeze" /><g transform="scale(1,1) translate(-199.487,-184.239)"><g transform="matrix(1,0,0,1,31.007,-38.433)" id="i43"><g opacity="0" id="i46"><g transform="translate(16,-75.125)"><animateTransform repeatCount="indefinite" type="translate" attributeName="transform" dur="3.033s" begin="0s" calcMode="spline" values="16 -75.125; 57.5 -51.125; 16 -75.125; 16 -75.125" keyTimes="0; 0.164835; 0.32967; 1" keySplines="0.333 0 0.18 1; 0.333 0 0.1 1; 0 0 1 1" fill="freeze" /><g transform="scale(1,1) translate(0,0)" /></g></g></g></g></g></g></g><g id="i2"><g transform="translate(564.412,658.82)"><g transform="rotate(1)"><animateTransform repeatCount="indefinite" type="rotate" attributeName="transform" dur="3.033s" begin="0s" calcMode="spline" values="1; -1.5; -1.5" keyTimes="0; 0.164835; 1" keySplines="0.333 0 0.667 1; 0 0 1 1" fill="freeze" /><g transform="scale(1,1) translate(-199.487,-184.239)"><g id="i25"><g transform="translate(31.219,144.856)"><g transform="rotate(0)"><animateTransform repeatCount="indefinite" type="rotate" attributeName="transform" dur="3.033s" begin="0s" calcMode="spline" values="0; -5; -5" keyTimes="0; 0.164835; 1" keySplines="0.73 0 0.28 1; 0 0 1 1" fill="freeze" /><g transform="scale(1,1) translate(-94.849,-180.833)"><g transform="matrix(1,0,0,1,64.509,19.47)" id="i40"><g transform="matrix(1,0,0,1,-22.515,76.537)" id="i47"><g id="i10" transform="matrix(1,0,0,1,22.765,18.571)"><path stroke-linejoin="round" stroke-linecap="round" stroke-width="0.259" stroke="#080b3c" d="M22.636,-18.442C22.636,-18.442,-22.636,18.442,-22.636,18.442" /></g></g></g></g></g></g></g></g></g></g></g><g id="i2"><g transform="translate(564.412,658.82)"><g transform="rotate(1)"><animateTransform repeatCount="indefinite" type="rotate" attributeName="transform" dur="3.033s" begin="0s" calcMode="spline" values="1; -1.5; -1.5" keyTimes="0; 0.164835; 1" keySplines="0.333 0 0.667 1; 0 0 1 1" fill="freeze" /><g transform="scale(1,1) translate(-199.487,-184.239)"><g id="i25"><g transform="translate(31.219,144.856)"><g transform="rotate(0)"><animateTransform repeatCount="indefinite" type="rotate" attributeName="transform" dur="3.033s" begin="0s" calcMode="spline" values="0; -5; -5" keyTimes="0; 0.164835; 1" keySplines="0.73 0 0.28 1; 0 0 1 1" fill="freeze" /><g transform="scale(1,1) translate(-94.849,-180.833)"><g transform="matrix(1,0,0,1,64.509,19.47)" id="i40"><g transform="matrix(1,0,0,1,-11.758,79.131)" id="i48"><g id="i10" transform="matrix(1,0,0,1,19.481,21.993)"><path stroke-linejoin="round" stroke-linecap="round" stroke-width="0.259" stroke="#080b3c" d="M19.352,-21.863C19.352,-21.863,-19.352,21.863,-19.352,21.863" /></g></g></g></g></g></g></g></g></g></g></g><g id="i2"><g transform="translate(564.412,658.82)"><g transform="rotate(1)"><animateTransform repeatCount="indefinite" type="rotate" attributeName="transform" dur="3.033s" begin="0s" calcMode="spline" values="1; -1.5; -1.5" keyTimes="0; 0.164835; 1" keySplines="0.333 0 0.667 1; 0 0 1 1" fill="freeze" /><g transform="scale(1,1) translate(-199.487,-184.239)"><g id="i25"><g transform="translate(31.219,144.856)"><g transform="rotate(0)"><animateTransform repeatCount="indefinite" type="rotate" attributeName="transform" dur="3.033s" begin="0s" calcMode="spline" values="0; -5; -5" keyTimes="0; 0.164835; 1" keySplines="0.73 0 0.28 1; 0 0 1 1" fill="freeze" /><g transform="scale(1,1) translate(-94.849,-180.833)"><g transform="matrix(1,0,0,1,64.509,19.47)" id="i40"><g transform="matrix(1,0,0,1,5.389,81.616)" id="i49"><g id="i10" transform="matrix(1,0,0,1,13.009,26.332)"><path stroke-linejoin="round" stroke-linecap="round" stroke-width="0.259" stroke="#080b3c" d="M12.88,-26.202C12.88,-26.202,-12.88,26.202,-12.88,26.202" /></g></g></g></g></g></g></g></g></g></g></g><g id="i2"><g transform="translate(564.412,658.82)"><g transform="rotate(1)"><animateTransform repeatCount="indefinite" type="rotate" attributeName="transform" dur="3.033s" begin="0s" calcMode="spline" values="1; -1.5; -1.5" keyTimes="0; 0.164835; 1" keySplines="0.333 0 0.667 1; 0 0 1 1" fill="freeze" /><g transform="scale(1,1) translate(-199.487,-184.239)"><g id="i25"><g transform="translate(31.219,144.856)"><g transform="rotate(0)"><animateTransform repeatCount="indefinite" type="rotate" attributeName="transform" dur="3.033s" begin="0s" calcMode="spline" values="0; -5; -5" keyTimes="0; 0.164835; 1" keySplines="0.73 0 0.28 1; 0 0 1 1" fill="freeze" /><g transform="scale(1,1) translate(-94.849,-180.833)"><g transform="matrix(1,0,0,1,64.509,19.47)" id="i41"><g transform="matrix(1,0,0,1,91.943,-8.452)" id="i50"><g id="i10" transform="matrix(1,0,0,1,16.104,14.299)"><path stroke-linejoin="round" stroke-linecap="round" stroke-width="0.199" stroke="#080b3c" d="M-16.005,14.199C-16.005,14.199,16.005,-14.199,16.005,-14.199" /></g></g></g></g></g></g></g></g></g></g></g><g id="i2"><g transform="translate(564.412,658.82)"><g transform="rotate(1)"><animateTransform repeatCount="indefinite" type="rotate" attributeName="transform" dur="3.033s" begin="0s" calcMode="spline" values="1; -1.5; -1.5" keyTimes="0; 0.164835; 1" keySplines="0.333 0 0.667 1; 0 0 1 1" fill="freeze" /><g transform="scale(1,1) translate(-199.487,-184.239)"><g id="i25"><g transform="translate(31.219,144.856)"><g transform="rotate(0)"><animateTransform repeatCount="indefinite" type="rotate" attributeName="transform" dur="3.033s" begin="0s" calcMode="spline" values="0; -5; -5" keyTimes="0; 0.164835; 1" keySplines="0.73 0 0.28 1; 0 0 1 1" fill="freeze" /><g transform="scale(1,1) translate(-94.849,-180.833)"><g transform="matrix(1,0,0,1,64.509,19.47)" id="i41"><g transform="matrix(1,0,0,1,89.435,-18.069)" id="i51"><g id="i10" transform="matrix(1,0,0,1,14.243,17.721)"><path stroke-linejoin="round" stroke-linecap="round" stroke-width="0.199" stroke="#080b3c" d="M-14.143,17.621C-14.143,17.621,14.143,-17.621,14.143,-17.621" /></g></g></g></g></g></g></g></g></g></g></g><g id="i2"><g transform="translate(564.412,658.82)"><g transform="rotate(1)"><animateTransform repeatCount="indefinite" type="rotate" attributeName="transform" dur="3.033s" begin="0s" calcMode="spline" values="1; -1.5; -1.5" keyTimes="0; 0.164835; 1" keySplines="0.333 0 0.667 1; 0 0 1 1" fill="freeze" /><g transform="scale(1,1) translate(-199.487,-184.239)"><g id="i25"><g transform="translate(31.219,144.856)"><g transform="rotate(0)"><animateTransform repeatCount="indefinite" type="rotate" attributeName="transform" dur="3.033s" begin="0s" calcMode="spline" values="0; -5; -5" keyTimes="0; 0.164835; 1" keySplines="0.73 0 0.28 1; 0 0 1 1" fill="freeze" /><g transform="scale(1,1) translate(-94.849,-180.833)"><g transform="matrix(1,0,0,1,64.509,19.47)" id="i41"><g transform="matrix(1,0,0,1,86.909,-29.911)" id="i52"><g id="i10" transform="matrix(1,0,0,1,10.393,22.304)"><path stroke-linejoin="round" stroke-linecap="round" stroke-width="0.199" stroke="#080b3c" d="M-10.293,22.204C-10.293,22.204,10.293,-22.204,10.293,-22.204" /></g></g></g></g></g></g></g></g></g></g></g></svg>